<svg width="495" height="427" viewBox="0 0 495 427" fill="none" xmlns="http://www.w3.org/2000/svg">
<rect width="494.667" height="426.667" rx="60" fill="#8D2F66"/>
<path d="M194.739 98.7838C192.296 101.36 187.043 110.191 183.012 118.409L175.683 133.251L170.797 133.006C166.155 132.638 165.911 132.393 165.544 128.1C164.933 120.74 163.834 120.372 137.693 120.004C114.484 119.513 114.24 119.513 112.774 122.212C111.919 123.806 111.553 126.873 112.041 129.571C112.774 134.11 112.53 134.355 106.911 137.912C99.0931 142.696 93.7184 148.584 90.0538 156.066L87 162.322L87.3665 232.729L87.7329 303.135L90.5424 308.41C96.6501 319.817 106.056 327.299 118.882 330.734C123.035 331.838 135.128 331.96 167.743 331.347L211.107 330.489L204.389 324.478C200.724 321.166 195.472 316.996 192.906 315.156L188.142 311.722L154.673 311.231L121.081 310.863L117.05 307.306C108.987 300.192 109.232 302.154 108.987 232.238C108.865 161.095 108.621 163.548 118.027 156.557L123.035 152.877H154.306H185.577L188.875 149.442C190.586 147.602 194.372 141.102 197.182 135.091C199.991 128.958 203.656 122.089 205.244 119.636L208.176 115.098L247.509 115.711L286.72 116.202L295.637 132.638C300.645 141.715 306.02 150.178 307.852 151.65C310.906 154.103 312.005 154.103 338.635 153.368C372.349 152.386 375.158 152.877 380.411 161.095L383.953 166.86L383.831 226.35C383.831 259.223 383.343 289.152 382.854 293.077C382.121 298.965 381.266 300.927 377.479 304.607C373.082 309.023 372.96 309.146 359.889 310.004C352.682 310.495 338.146 310.986 327.641 310.986L308.707 311.108L305.165 314.788C303.21 316.873 298.202 320.798 293.927 323.497C289.651 326.318 286.231 329.017 286.231 329.507C286.231 330.979 309.929 331.838 343.032 331.47C373.448 331.225 373.57 331.225 380.9 327.79C389.328 323.988 398.123 315.156 402.398 306.57C405.086 300.805 405.208 299.578 406.307 245.485C407.651 174.956 407.284 166.492 403.009 157.047C398.856 148.093 395.314 144.168 384.931 137.299C378.456 133.129 376.624 131.289 376.624 128.958C376.624 125.156 372.105 123.929 355.858 122.825C340.711 121.844 337.291 122.825 335.947 128.713L334.848 133.251H327.274H319.701L315.181 123.07C308.219 107.615 302.355 99.2745 296.614 96.4533C291.85 94.1227 288.918 94.0001 245.31 94.0001H199.136L194.739 98.7838Z" fill="#F5F5F5"/>
<path d="M226.132 139.875C217.459 142.451 205.366 148.461 198.037 153.858C183.256 164.775 167.987 185.259 162.613 201.573C161.391 205.13 159.803 213.225 159.192 219.604C155.65 253.949 169.453 284.736 198.037 305.956C215.749 319.081 230.285 323.129 254.838 321.657C268.519 320.798 276.337 318.59 289.651 311.844C303.455 304.852 321.655 283.142 332.038 261.431C339.856 245.24 340.711 222.18 334.359 204.271C328.129 186.731 323.243 178.881 310.051 165.756C296.858 152.509 286.842 145.762 274.016 141.592C263.877 138.403 235.049 137.299 226.132 139.875ZM257.281 160.359C269.863 162.199 281.956 168.577 292.95 178.881C317.991 202.309 322.633 239.72 304.432 270.14C300.034 277.499 287.941 288.661 280.123 292.709C264.121 300.927 247.509 303.381 234.194 299.455C195.838 288.293 173.973 252.845 181.668 214.207C184.478 200.714 186.066 197.157 194.006 186.731C201.701 176.55 209.275 170.417 220.757 165.02C232.606 159.5 242.867 158.151 257.281 160.359Z" fill="#F5F5F5"/>
<path d="M220.757 193.477C214.283 194.949 206.588 201.696 203.167 208.81C199.503 216.415 200.113 228.803 204.755 236.531C208.298 242.664 245.432 280.811 247.142 280.198C248.364 279.83 271.084 257.383 280.856 247.08C287.819 239.598 294.538 229.049 295.393 224.02C295.759 221.689 295.515 216.905 294.782 213.594C291.85 200.592 283.055 193.355 269.863 193.355C262.289 193.355 257.892 195.072 253.372 199.978C249.707 203.903 248.242 203.903 245.188 200.592C239.691 194.459 229.308 191.515 220.757 193.477Z" fill="#F5F5F5"/>
<path d="M125.112 173.606C118.638 179.617 120.836 189.307 129.143 192.128C134.517 193.845 138.915 192.128 142.091 186.976C145.511 181.457 145.145 177.899 140.992 173.606C136.105 168.7 130.242 168.7 125.112 173.606Z" fill="#F5F5F5"/>
<path d="M354.27 173.484C348.895 179.126 350.117 186.731 357.202 190.288C361.721 192.619 368.196 191.024 371.127 186.854C378.701 176.06 363.432 163.916 354.27 173.484Z" fill="#F5F5F5"/>
</svg>
